<svg width="52" height="59" viewBox="0 0 52 59" fill="none" xmlns="http://www.w3.org/2000/svg">
<path d="M4.48828 54.0137C9.07107 51.3554 14.6758 51.2315 19.7877 50.7884C22.3826 50.55 24.9924 50.5088 27.557 50.3992C30.141 50.341 32.7181 50.1083 35.2708 49.7026C32.9542 50.9972 30.3017 51.6096 27.7235 52.0295C25.1454 52.4494 22.532 52.6646 19.9499 52.8832C14.7196 53.2973 9.64416 52.9413 4.48828 54.0137Z" fill="#454545"/>
<path d="M38.6777 40.2224C32.3427 34.4466 27.1069 27.5834 21.4282 21.2309C15.7218 14.7485 9.25514 8.1177 5.98269 -0.000281906L6.33326 0.45637C6.46234 0.68421 6.56473 0.926163 6.63841 1.17745C6.48138 0.974941 6.39456 0.71159 6.21604 0.559525L6.34195 0.473194C8.74506 3.99006 11.4154 7.31665 14.3293 10.4235C17.2055 13.5774 20.1704 16.6462 23.0147 19.8494C28.6683 26.3312 33.5521 33.3188 38.6777 40.2224Z" fill="#454545"/>
<path d="M48.5006 35.0588C46.7987 30.4296 46.8264 25.3597 46.7984 20.5056C46.7703 15.6514 46.9106 10.5676 48.6993 5.95882C48.5973 10.1326 48.7214 14.5061 48.8648 18.6598C49.0096 24.1717 48.4301 29.5446 48.4954 35.0582L48.5006 35.0588Z" fill="#454545"/>
</svg>
